<svg xmlns="http://www.w3.org/2000/svg">
  <symbol id="close" width="18" height="18" viewBox="0 0 18 18">
    <title>Close button</title>
    <path d="M17.5.5L.53 17.47m16.97 0L.53.5" fill="none" fill-rule="evenodd" stroke="currentColor" stroke-linecap="square" stroke-width="2"/>
  </symbol>

  <symbol id="point-hand" width="58" height="66" viewBox="0 0 58 66">
    <title>Pointing hand</title>
    <g fill="none" fill-rule="evenodd">
      <path d="M29 37.5V6a4.5 4.5 0 1 0-9 0v31.5" />
      <path stroke="#8DA0FF" stroke-linecap="round" stroke-linejoin="round" stroke-width="3" d="M29 37.5V6a4.5 4.5 0 1 0-9 0v31.5" />
      <path d="M38 33V1.5a4.5 4.5 0 1 0-9 0V33" />
      <path stroke="#8DA0FF" stroke-linecap="round" stroke-linejoin="round" stroke-width="3" d="M38 36V21.125C38 19.951 35.986 19 33.5 19c-2.485 0-4.5.951-4.5 2.125V36" />
      <path d="M47 37.5V6a4.5 4.5 0 1 0-9 0v31.5" />
      <path stroke="#8DA0FF" stroke-linecap="round" stroke-linejoin="round" stroke-width="3" d="M47 37.5V22.722c0-1.166-2.014-2.11-4.5-2.11s-4.5.944-4.5 2.11V37.5" />
      <path d="M56 42V15a4.5 4.5 0 1 0-9 0v22.5" />
      <path stroke="#8DA0FF" stroke-linecap="round" stroke-linejoin="round" stroke-width="3" d="M56 42V25.714C56 24.215 53.986 23 51.5 23S47 24.215 47 25.714v13.572" />
      <path d="M11 42V28.5a4.5 4.5 0 1 0-9 0v18" />
      <path stroke="#8DA0FF" stroke-linecap="round" stroke-linejoin="round" stroke-width="3" d="M11 42V28.5a4.5 4.5 0 1 0-9 0v18" />
      <path d="M56 42c0 12.426-10.074 22.5-22.5 22.5C21.073 64.5 11 54.426 11 42" />
      <path stroke="#8DA0FF" stroke-linecap="round" stroke-linejoin="round" stroke-width="3" d="M56 42c0 12.426-10.074 22.5-22.5 22.5C21.073 64.5 11 54.426 11 42" />
    </g>
  </symbol>

  <symbol id="wave-hand" width="112" height="139" viewBox="0 0 112 139">
    <g fill="none" fill-rule="evenodd">
      <path d="M56 83V20a9 9 0 0 0-9-9 9 9 0 0 0-9 9v63" />
      <path stroke="#FFF" stroke-linecap="round" stroke-linejoin="round" stroke-width="3" d="M56 83V20a9 9 0 0 0-9-9 9 9 0 0 0-9 9v63" />
      <path d="M74 74V11a9 9 0 0 0-9-9 9 9 0 0 0-9 9v63" />
      <path stroke="#FFF" stroke-linecap="round" stroke-linejoin="round" stroke-width="3" d="M74 74V11a9 9 0 0 0-9-9 9 9 0 0 0-9 9v63" />
      <path d="M92 83V20a9 9 0 0 0-9-9 9 9 0 0 0-9 9v63" />
      <path stroke="#FFF" stroke-linecap="round" stroke-linejoin="round" stroke-width="3" d="M92 83V20a9 9 0 0 0-9-9 9 9 0 0 0-9 9v63" />
      <path d="M110 92V38a9 9 0 0 0-9-9 9 9 0 0 0-9 9v45" />
      <path stroke="#FFF" stroke-linecap="round" stroke-linejoin="round" stroke-width="3" d="M110 92V38a9 9 0 0 0-9-9 9 9 0 0 0-9 9v45" />
      <path d="M20 92V65a9 9 0 0 0-9-9 9 9 0 0 0-9 9v36" />
      <path stroke="#FFF" stroke-linecap="round" stroke-linejoin="round" stroke-width="3" d="M20 92V65a9 9 0 0 0-9-9 9 9 0 0 0-9 9v36" />
      <path d="M110 92c0 24.853-20.147 45-45 45s-45-20.147-45-45" />
      <path stroke="#FFF" stroke-linecap="round" stroke-linejoin="round" stroke-width="3" d="M110 92c0 24.853-20.147 45-45 45s-45-20.147-45-45" />
    </g>
  </symbol>
</svg>